<svg width="20" height="20" fill="none" xmlns="http://www.w3.org/2000/svg"><path d="M16.25 0c1.033 0 1.916.367 2.65 1.1.733.734 1.1 1.617 1.1 2.65v12.5c0 1.033-.367 1.916-1.1 2.65-.734.733-1.617 1.1-2.65 1.1h-2.448v-7.747h2.591l.39-3.021h-2.98V7.305c0-.486.101-.851.305-1.094.204-.243.601-.365 1.191-.365l1.589-.013V3.138c-.547-.078-1.32-.117-2.318-.117-1.18 0-2.124.347-2.832 1.042-.707.694-1.06 1.675-1.06 2.942v2.227H8.072v3.02h2.604V20H3.75c-1.033 0-1.916-.367-2.65-1.1-.733-.734-1.1-1.617-1.1-2.65V3.75C0 2.717.367 1.834 1.1 1.1 1.834.367 2.717 0 3.75 0h12.5z" fill="#000"/></svg>