<svg width="20" height="20" fill="none" xmlns="http://www.w3.org/2000/svg"><path d="M1.406 1.406C0 2.812 0 5.075 0 9.6v.8c0 4.525 0 6.788 1.406 8.194C2.812 20 5.075 20 9.6 20h.8c4.525 0 6.788 0 8.194-1.406C20 17.188 20 14.925 20 10.4v-.8c0-4.525 0-6.788-1.406-8.194C17.188 0 14.925 0 10.4 0h-.8C5.075 0 2.812 0 1.406 1.406zm1.969 4.677h2.283C5.733 9.9 7.417 11.517 8.75 11.85V6.083h2.15v3.292c1.317-.142 2.7-1.642 3.167-3.292h2.15a6.35 6.35 0 01-2.925 4.15 6.579 6.579 0 013.425 4.175H14.35a4.115 4.115 0 00-3.45-2.975v2.975h-.258c-4.559 0-7.159-3.125-7.267-8.325z" fill="#000"/></svg>